<svg viewBox="0 0 200 200" width="200" height="200" xmlns="http://www.w3.org/2000/svg">
  <defs>
    <linearGradient id="hyundaiBlue" x1="0%" y1="0%" x2="100%" y2="100%">
      <stop offset="0%" stop-color="#002C6C" />
      <stop offset="50%" stop-color="#00438F" />
      <stop offset="100%" stop-color="#001844" />
    </linearGradient>
    <linearGradient id="hyundaiChrome" x1="0%" y1="0%" x2="100%" y2="100%">
      <stop offset="0%" stop-color="#F8FAFC" />
      <stop offset="35%" stop-color="#CBD5E1" />
      <stop offset="70%" stop-color="#64748B" />
      <stop offset="100%" stop-color="#334155" />
    </linearGradient>
  </defs>
  <!-- Official Hyundai Slanted Oval Ring with Flowing 'H' -->
  <g transform="translate(10, 25) scale(0.9)">
    <!-- Outer Slanted Oval -->
    <path d="M 100 12 C 45 12 10 38 10 70 C 10 102 45 128 100 128 C 155 128 190 102 190 70 C 190 38 155 12 100 12 Z M 100 26 C 144 26 174 46 174 70 C 174 94 144 114 100 114 C 56 114 26 94 26 70 C 26 46 56 26 100 26 Z" fill="url(#hyundaiBlue)"/>
    <!-- Left Stalk (Slanted) -->
    <path d="M 52 104 C 48 88 54 52 68 34 C 72 29 80 30 79 38 C 68 56 64 88 68 104 C 69 108 55 110 52 104 Z" fill="url(#hyundaiBlue)"/>
    <!-- Right Stalk (Slanted) -->
    <path d="M 124 34 C 138 52 144 88 134 104 C 132 109 123 108 124 100 C 132 84 128 52 116 38 C 114 30 121 29 124 34 Z" fill="url(#hyundaiBlue)"/>
    <!-- Crossbar -->
    <path d="M 64 72 C 86 64 114 62 134 68 C 138 69 136 76 130 77 C 110 73 84 75 66 80 C 62 81 61 74 64 72 Z" fill="url(#hyundaiBlue)"/>
  </g>
</svg>
