<svg xmlns="http://www.w3.org/2000/svg" width="128" height="128" viewBox="0 0 128 128">
  <defs>
    <linearGradient id="chromeShaft" x1="0%" y1="0%" x2="100%" y2="0%">
      <stop offset="0%" stop-color="#94A3B8" />
      <stop offset="50%" stop-color="#FFFFFF" />
      <stop offset="100%" stop-color="#475569" />
    </linearGradient>
    <linearGradient id="redSpring" x1="0%" y1="0%" x2="0%" y2="100%">
      <stop offset="0%" stop-color="#F87171" />
      <stop offset="40%" stop-color="#DC2626" />
      <stop offset="100%" stop-color="#991B1B" />
    </linearGradient>
  </defs>
  <ellipse cx="64" cy="112" rx="36" ry="10" fill="#000000" opacity="0.3" />
  <g filter="drop-shadow(0px 8px 12px rgba(0,0,0,0.3))">
    <!-- Center Shaft -->
    <rect x="56" y="16" width="16" height="90" rx="4" fill="url(#chromeShaft)"/>
    <!-- Top Strut Mount -->
    <path d="M 44 16 L 84 16 L 80 28 L 48 28 Z" fill="#1E293B"/>
    <rect x="44" y="16" width="40" height="4" rx="1" fill="#475569"/>
    
    <!-- 3D Coil Springs -->
    <g fill="url(#redSpring)">
      <path d="M 36 34 C 36 28 92 34 92 40 C 92 46 36 40 36 34 Z"/>
      <path d="M 36 34 C 36 28 92 34 92 40 L 90 43 C 90 37 38 31 36 37 Z" fill="#FFFFFF" opacity="0.4"/>

      <path d="M 36 50 C 36 44 92 50 92 56 C 92 62 36 56 36 50 Z"/>
      <path d="M 36 50 C 36 44 92 50 92 56 L 90 59 C 90 53 38 47 36 53 Z" fill="#FFFFFF" opacity="0.4"/>

      <path d="M 36 66 C 36 60 92 66 92 72 C 92 78 36 72 36 66 Z"/>
      <path d="M 36 66 C 36 60 92 66 92 72 L 90 75 C 90 69 38 63 36 69 Z" fill="#FFFFFF" opacity="0.4"/>

      <path d="M 36 82 C 36 76 92 82 92 88 C 92 94 36 88 36 82 Z"/>
      <path d="M 36 82 C 36 76 92 82 92 88 L 90 91 C 90 85 38 79 36 85 Z" fill="#FFFFFF" opacity="0.4"/>
    </g>

    <!-- Bottom Eyelet Mount -->
    <circle cx="64" cy="100" r="12" fill="#1E293B"/>
    <circle cx="64" cy="100" r="6" fill="url(#chromeShaft)"/>
  </g>
</svg>
